<svg xmlns="http://www.w3.org/2000/svg" xmlns:xlink="http://www.w3.org/1999/xlink" version="1.1" x="0px" y="0px"
     viewBox="0 0 36 45" style="enable-background:new 0 0 36 36;" xml:space="preserve"><path d="M16.46,19.54c0.78,0.78,1.72,1.41,2.76,1.86c3.29,1.39,7.04,0.66,9.56-1.86c3.4-3.4,3.4-8.92,0-12.32s-8.92-3.4-12.32,0  c-2.52,2.52-3.25,6.27-1.86,9.56C15.05,17.82,15.68,18.76,16.46,19.54z M23.22,9.2c0.99-0.99,2.59-0.99,3.58,0s0.99,2.59,0,3.58  s-2.59,0.99-3.58,0S22.23,10.19,23.22,9.2z"/>
    <path d="M11.29,29.08c0.05-0.05,0.12-0.08,0.2-0.08h1.31v-1.31c0-0.16,0.13-0.28,0.28-0.28h1.31V26.1c0-0.07,0.03-0.15,0.08-0.2  c0.05-0.05,0.12-0.08,0.2-0.08h1.31v-1.31c0-0.07,0.03-0.15,0.08-0.2l2.56-2.56l-0.34-0.18c-0.64-0.34-1.25-0.76-1.82-1.27  l-0.2-0.18l-7.76,7.76C8.4,28,8.22,28,8.11,27.89C8,27.78,8,27.6,8.11,27.49l7.76-7.76l-0.18-0.2c-0.5-0.57-0.93-1.18-1.27-1.82  l-0.18-0.34L5.4,26.23l-0.73,5.1l5.1-0.73L11.29,29.08z"/>
    <text x="0" y="51" fill="#000000" font-size="5px" font-weight="bold"
          font-family="'Helvetica Neue', Helvetica, Arial-Unicode, Arial, Sans-serif">Created by newstudiodesign10</text>
    <text x="0" y="56" fill="#000000" font-size="5px" font-weight="bold"
          font-family="'Helvetica Neue', Helvetica, Arial-Unicode, Arial, Sans-serif">from the Noun Project</text></svg>