<svg xmlns="http://www.w3.org/2000/svg" xmlns:xlink="http://www.w3.org/1999/xlink" version="1.1" x="0px" y="0px"
     viewBox="0 0 64 80" style="enable-background:new 0 0 64 64;" xml:space="preserve"><path d="M17.67,24.43c0,4.88,2.46,9.39,6.59,12.05c2.32,1.49,5,2.28,7.74,2.28s5.42-0.79,7.74-2.28c4.13-2.66,6.59-7.16,6.59-12.05  c0-7.9-6.43-14.33-14.33-14.33S17.67,16.53,17.67,24.43z"/>
    <path d="M40.41,38.12c-0.07,0.04-0.14,0.08-0.22,0.12l-0.28,0.16c-0.1,0.06-0.19,0.11-0.29,0.17c-0.16,0.09-0.33,0.17-0.49,0.25  l-0.23,0.11c-0.1,0.05-0.2,0.1-0.3,0.15c-0.15,0.07-0.3,0.13-0.44,0.19l-0.29,0.12c-0.1,0.04-0.21,0.09-0.31,0.13  c-0.15,0.05-0.3,0.1-0.45,0.15l-0.31,0.1c-0.1,0.04-0.21,0.07-0.31,0.1c-0.15,0.04-0.3,0.08-0.46,0.12l-0.31,0.08  c-0.11,0.03-0.22,0.06-0.33,0.08c-0.17,0.04-0.34,0.07-0.52,0.1l-0.31,0.05c-0.1,0.02-0.19,0.04-0.29,0.05  c-0.22,0.03-0.45,0.05-0.67,0.07l-0.23,0.02c-0.08,0.01-0.15,0.02-0.23,0.02c-0.76,0.05-1.52,0.05-2.28,0  c-0.08-0.01-0.15-0.01-0.23-0.02l-0.23-0.02c-0.22-0.02-0.44-0.04-0.67-0.07c-0.1-0.01-0.19-0.03-0.29-0.05l-0.31-0.05  c-0.17-0.03-0.35-0.06-0.52-0.1c-0.11-0.02-0.22-0.05-0.33-0.08l-0.31-0.08c-0.15-0.04-0.3-0.07-0.46-0.12  c-0.11-0.03-0.21-0.07-0.31-0.1l-0.31-0.1c-0.15-0.05-0.3-0.1-0.45-0.15c-0.11-0.04-0.23-0.09-0.34-0.14l-0.22-0.09  c-0.17-0.07-0.33-0.13-0.49-0.21c-0.1-0.05-0.2-0.1-0.3-0.15l-0.27-0.13c-0.15-0.07-0.3-0.15-0.45-0.23  c-0.1-0.05-0.19-0.11-0.29-0.17l-0.28-0.16c-0.07-0.04-0.14-0.08-0.22-0.12C12.15,39.59,6.66,44.61,6.35,53.9h51.31  C57.34,44.61,51.85,39.59,40.41,38.12z"/>
    <text x="0" y="79" fill="#000000" font-size="5px" font-weight="bold"
          font-family="'Helvetica Neue', Helvetica, Arial-Unicode, Arial, Sans-serif">Created by designer expert</text>
    <text x="0" y="84" fill="#000000" font-size="5px" font-weight="bold"
          font-family="'Helvetica Neue', Helvetica, Arial-Unicode, Arial, Sans-serif">from the Noun Project</text></svg>